<svg width="128" height="128" viewBox="0 0 128 128" fill="none" xmlns="http://www.w3.org/2000/svg">
<path d="M64 122.5C89.6344 122.5 103.885 122.5 113.192 113.192C122.5 103.885 122.5 89.6344 122.5 64C122.5 38.3656 122.5 24.1152 113.192 14.8076C103.885 5.5 89.6344 5.5 64 5.5C38.3656 5.5 24.1152 5.5 14.8076 14.8076C5.5 24.1152 5.5 38.3656 5.5 64C5.5 89.6344 5.5 103.885 14.8076 113.192C24.1152 122.5 38.3656 122.5 64 122.5Z" fill="#0F0F0F"/>
<path fill-rule="evenodd" clip-rule="evenodd" d="M55.5548 38.025C55.5548 37.2521 54.9273 36.625 54.1548 36.625H43.6613C40.155 36.625 37.3086 39.4714 37.3086 42.9772V85.0104C37.3086 88.5163 40.155 91.3631 43.6613 91.3631H54.1548C54.9273 91.3631 55.5548 90.7356 55.5548 89.9631V38.025ZM85.907 72.6576C84.3682 69.8966 80.8772 67.655 78.1163 67.655H62.0513C61.2018 67.655 60.8965 68.3447 61.3699 69.1942L70.9429 86.3719C72.4817 89.1333 75.9727 91.375 78.7337 91.375H94.7982C95.6478 91.375 95.9534 90.6853 95.4796 89.8353L85.907 72.6576ZM86.5767 49.3969C86.5767 42.348 80.8537 36.625 73.8043 36.625H62.5348C61.7054 36.625 61.0324 37.2981 61.0324 38.1275V60.6664C61.0324 61.4958 61.7054 62.1693 62.5348 62.1693H73.8043C80.8537 62.1693 86.5767 56.4463 86.5767 49.3969Z" fill="#FAF0E4"/>
</svg>
